<svg xmlns="http://www.w3.org/2000/svg" viewBox="0 0 51.264 50.665" width="52" height="52"><path d="M28.966 14.212a.477.477 0 0 0 .506.169.31.31 0 0 0 .253.084 1.26 1.26 0 0 0 .591-.253 14.428 14.428 0 0 1 1.182-.928 7.388 7.388 0 0 0 .844-1.857 3.653 3.653 0 0 0 .422-1.013L33.1 9.4a6.4 6.4 0 0 1 .506-1.35 1.718 1.718 0 0 1 .506-1.266 9.224 9.224 0 0 0 .675-1.266 2.147 2.147 0 0 0 .253-1.266 1.564 1.564 0 0 0-.675-1.519l-.675-.253a.952.952 0 0 0-.928.253 2.463 2.463 0 0 0-.928 1.35 4.178 4.178 0 0 0-.338 1.1 2.682 2.682 0 0 0-.169 1.182c0 .338-.253.591-.253 1.013a3.475 3.475 0 0 0-.253.675l-.338.928a5.6 5.6 0 0 0-.253 1.266 1.766 1.766 0 0 1-.338.506l-.253.422c-.169.338-.084.844-.253 1.1-.084.76-.675 1.266-.422 1.941m-7.341-9.71a7.225 7.225 0 0 1 .422 1.941 10.115 10.115 0 0 1 .084 2.279 1.886 1.886 0 0 1 0 1.182 9.13 9.13 0 0 0 0 1.519 13.467 13.467 0 0 0 .844 1.941.464.464 0 0 0 .422.253h.085a1.647 1.647 0 0 0 1.013-1.1.918.918 0 0 0 .084-.422 8.378 8.378 0 0 0 .253-1.266 4.276 4.276 0 0 0-.169-1.1c-.338-.591-.084-1.435-.422-2.11V6.11l.084-2.785a13.068 13.068 0 0 0-.084-1.772A5.672 5.672 0 0 0 23.733.54L23.311.2a.922.922 0 0 0-.844-.167A3.276 3.276 0 0 0 21.2.962a3.747 3.747 0 0 0 .084 2.532c.169.253.169.675.338 1.013m-8.608 3.375a7.108 7.108 0 0 0 .928 1.772c.338.506.591 1.013.928 1.6a2.085 2.085 0 0 1 .338.76l.169 1.266a.168.168 0 0 0 .084.169l.339 1.017a2.186 2.186 0 0 0 1.6 1.35l.594.084a.968.968 0 0 0 .422-1.013.761.761 0 0 0 .084-.422 8.029 8.029 0 0 0-.338-1.519c-.506-.506-.675-1.013-1.182-1.435a2.3 2.3 0 0 1-.506-1.013c-.253-.338-.169-.844-.422-1.266a7.387 7.387 0 0 1-.169-1.35A12.464 12.464 0 0 0 15.8 6.11l-.338-.844V5.1a5.3 5.3 0 0 0-.928-1.013A.9.9 0 0 0 13.52 4a3.239 3.239 0 0 0-.928.928 1.3 1.3 0 0 0 0 1.35 2.7 2.7 0 0 0 .422 1.6m6.414 13.762a10.3 10.3 0 0 0 1.435-.591 6.006 6.006 0 0 0 1.772-.338 2.1 2.1 0 0 1 .675-.084.407.407 0 0 0 .338-.084 2.336 2.336 0 0 1 1.1.253h1.688c.253.084.506.084.675.169a2.185 2.185 0 0 0 .928.591c.338-.169.844.169 1.1-.169l.338-.506a.638.638 0 0 0 .253-.675c.169-.338.084-.844.253-1.266a1.9 1.9 0 0 0 .169-1.35 4.524 4.524 0 0 0-.422-.928l-.253-.253a2.123 2.123 0 0 0-1.266-.084c-.506.253-1.266.084-1.688.338l-.591.084a1.374 1.374 0 0 1-1.013.084l-.928-.506a1.106 1.106 0 0 0-.928.169l-.263.166c-.422.169-.76.338-1.1.506-.338.084-.675.422-1.1.591-.76-.084-1.266.675-2.026.675a1.683 1.683 0 0 0-1.266 1.1c0 .675-.76 1.013-1.182 1.519a4.711 4.711 0 0 0-.675.422.891.891 0 0 1-.422.169h-.496c-.506-.169-.422-.76-.675-1.1-.169-.591-.844-.591-1.1-1.1a5.752 5.752 0 0 0-1.013-1.013 3.832 3.832 0 0 1-1.266-1.1l-1.6-1.013a5.277 5.277 0 0 0-1.519-1.857.083.083 0 0 1-.084-.084 1.02 1.02 0 0 0-.844-.253 2.322 2.322 0 0 0-1.266.675 1.517 1.517 0 0 0-.338.76 3.5 3.5 0 0 0 .591 1.1 5.005 5.005 0 0 0 1.266 1.435l.76.591.505.34.591.338c.591.253 1.182.675 1.857.928l.928.844a8.363 8.363 0 0 0 1.435.928 4.816 4.816 0 0 1 1.182 1.1.38.38 0 0 0 .253.253 5.163 5.163 0 0 0 1.013.422.52.52 0 0 0 .591-.086 27.456 27.456 0 0 0 2.448-1.941 2.5 2.5 0 0 0 1.182-.169m-.338 5.486a2.616 2.616 0 0 1 .506 1.1 1.709 1.709 0 0 0 .675 1.182c.506.422 1.266.253 1.688.675a3.5 3.5 0 0 0 1.35.169h.089a1.864 1.864 0 0 0 1.35 0 3.535 3.535 0 0 0 1.35-.928c.253-.591 1.1-.928 1.1-1.6a3.485 3.485 0 0 0 .591-.928 11.437 11.437 0 0 0-.169-1.688 3.942 3.942 0 0 0-.422-.844 3.481 3.481 0 0 1-.844-1.1 4 4 0 0 0-.844-.844 7.113 7.113 0 0 0-1.182-.506l-.675-.084-.422-.084a3.211 3.211 0 0 0-2.532.844 3.16 3.16 0 0 0-1.013 1.1 3.979 3.979 0 0 1-.506 1.266 3.083 3.083 0 0 0-.253 1.266 4.236 4.236 0 0 1 .169 1.013m27.261-6.836a1.723 1.723 0 0 0-1.266-1.013 1.2 1.2 0 0 0-.506-.169 3.625 3.625 0 0 0-1.35 0 5.156 5.156 0 0 0-1.182.591c-.675.675-1.519.928-2.194 1.688a12.582 12.582 0 0 0-1.266 1.688c-.506.338-.844 1.1-1.435 1.266a5.459 5.459 0 0 1-1.1.338 2.852 2.852 0 0 0-1.013.506 5.011 5.011 0 0 0-.675.338 8.418 8.418 0 0 0-1.6 1.013 14.014 14.014 0 0 1-1.182 1.1 12.913 12.913 0 0 1-1.519 1.519.438.438 0 0 1-.338.169 1.165 1.165 0 0 0-.338.253 6 6 0 0 1-1.519.675 11.952 11.952 0 0 0-1.857.591 3.5 3.5 0 0 1-1.35.253l-.76.169a1.914 1.914 0 0 1-.338-.084c-.338 0-.675-.084-1.1-.084a2.528 2.528 0 0 0-.844-.338c-.591-.253-1.266-.506-1.941-.844a4.937 4.937 0 0 1-1.266-.506 11 11 0 0 0-1.266-.844 3.064 3.064 0 0 0-.591-.253.447.447 0 0 0-.169.253c.084.338.253.675.338 1.1l.084 1.435.169.422a3.034 3.034 0 0 0 .169.928c0 .338.253.591.253 1.013a5.719 5.719 0 0 0 1.177 1.928 5.815 5.815 0 0 0 .253.675 1.518 1.518 0 0 0 .76.506 4.471 4.471 0 0 1 .844.506 1.37 1.37 0 0 0 .422.76 3.034 3.034 0 0 0 .928.169 2.709 2.709 0 0 0 1.435.169l.253-.169a4.061 4.061 0 0 0 .928-.76 5.124 5.124 0 0 0 .844-.591 6.441 6.441 0 0 1 .928-.675 1.388 1.388 0 0 1 .844-.169l.844-.338 1.013-.253a.91.91 0 0 0 .675-.675l.169-.253c.253-.084.591.169.928.084a9.9 9.9 0 0 0 .928-.422 1.15 1.15 0 0 0 .844-1.013 2.164 2.164 0 0 1 .928-.675 4.836 4.836 0 0 1 .928-.928 1.22 1.22 0 0 0 .591-.844l.34-.504a2 2 0 0 0 .253-1.013 1.313 1.313 0 0 1 .506-.675 4.115 4.115 0 0 1 .253-.591 5.054 5.054 0 0 1 1.35-.675 1.576 1.576 0 0 0 1.013-.928 2.22 2.22 0 0 1 1.266-1.35A5.131 5.131 0 0 0 41.373 24a3.076 3.076 0 0 1 1.266-.169 15.348 15.348 0 0 0 2.616-1.35 2.3 2.3 0 0 0 1.182-1.35 2.6 2.6 0 0 1-.084-.844" fill="#5aba48"/><path d="M7.123 40.852a.944.944 0 1 1 0 1.888.959.959 0 0 1-.973-.94.941.941 0 0 1 .973-.944m-.744 9.637h1.545v-7.066H6.379v7.066zm17.994-7.037H26l-2.575 7.037h-1.569l-2.575-7.037h1.631l1.773 4.944zm3.2-2.6a.944.944 0 1 1 0 1.888.959.959 0 0 1-.973-.944.941.941 0 0 1 .973-.944m-.744 9.641h1.545v-7.07h-1.541v7.066zm9.7-9.641a.944.944 0 1 1 0 1.888.959.959 0 0 1-.973-.944.941.941 0 0 1 .973-.944m-.744 9.641h1.545v-7.07h-1.543v7.066zm5.664-7.209a2.607 2.607 0 0 1 2.861 2.432v2.46c0 1.659-1.459 2.432-2.861 2.432-1.43 0-2.889-.8-2.889-2.432v-2.46c.029-1.6 1.459-2.4 2.889-2.432m-1.316 2.432v2.46a1.228 1.228 0 0 0 1.345 1.058 1.214 1.214 0 0 0 1.322-1.062v-2.46a1.4 1.4 0 0 0-2.66 0m5.431-1.803c2.06-1 5.693-.83 5.693 1.945v4.663h-1.545v-4.662c-.057-1.2-1.831-1.345-2.6-.858v5.521h-1.548v-6.609z"/><path d="M34.367 34.722a2.649 2.649 0 0 1 2.616 2.7 2.659 2.659 0 1 1-5.317 0 2.777 2.777 0 0 1 2.7-2.7m0 4.558a1.857 1.857 0 1 0-1.857-1.857 1.873 1.873 0 0 0 1.857 1.857m-.338-.506h-.758v-2.618h1.182a.937.937 0 0 1 .506 1.772l.675.928h-.844l-.589-.843h-.17v.76zm0-1.435h.422a.3.3 0 1 0 0-.591h-.42v.591z" fill="#5aba48"/><path d="M12.444 49.292c-.8 0-1.545-.086-1.545-1.173v-3.176h1.4v-1.487H10.9v-2.575H9.354v7.209c0 2 1.43 2.718 3.147 2.46zm-9.583-2.976c-.6-.086-1.373-.286-1.316-.915a.94.94 0 0 1 1.055-.629h2.235v-1.4H2.6c-1.227.028-2.6.656-2.6 2.143 0 1.6 1.573 1.974 2.575 2.174a1.2 1.2 0 0 1 1.173.772.859.859 0 0 1-1 .8H.2v1.4h2.546a2.292 2.292 0 0 0 2.489-2.2c0-1.516-1.2-1.974-2.374-2.146m29.494 0c-.6-.086-1.373-.286-1.316-.915a.94.94 0 0 1 1.058-.629h2.231v-1.4H32.1c-1.23.029-2.6.658-2.6 2.146 0 1.6 1.573 1.974 2.575 2.174a1.2 1.2 0 0 1 1.173.772.859.859 0 0 1-1 .8h-2.525v1.4h2.546a2.292 2.292 0 0 0 2.489-2.2c0-1.516-1.23-1.974-2.4-2.146m-13.392 1.344v-1.917a2.561 2.561 0 0 0-2.832-2.432c-1.43 0-2.889.772-2.889 2.432v2.489c0 1.631 1.373 2.4 2.8 2.432h2.775v-1.43h-2.2c-.973-.029-1.859-.315-1.859-1v-.574h4.205zm-4.176-1.917c-.057-1.373 2.66-1.345 2.66-.029v.715h-2.66v-.686z"/></svg>