<svg xmlns="http://www.w3.org/2000/svg" viewBox="0 0 49.3 47.539" width="50" height="50"><path d="M28.6,16.839a0.565,0.565,0,0,0,.6.2,0.367,0.367,0,0,0,.3.1,1.493,1.493,0,0,0,.7-0.3,17.1,17.1,0,0,1,1.4-1.1,8.754,8.754,0,0,0,1-2.2,4.329,4.329,0,0,0,.5-1.2l0.4-1.2a7.579,7.579,0,0,1,.6-1.6,2.035,2.035,0,0,1,.6-1.5,10.929,10.929,0,0,0,.8-1.5,2.544,2.544,0,0,0,.3-1.5,1.853,1.853,0,0,0-.8-1.8l-0.8-.3a1.129,1.129,0,0,0-1.1.3,2.919,2.919,0,0,0-1.1,1.6,4.951,4.951,0,0,0-.4,1.3,3.178,3.178,0,0,0-.2,1.4c0,0.4-.3.7-0.3,1.2a4.117,4.117,0,0,0-.3.8l-0.4,1.1a6.641,6.641,0,0,0-.3,1.5,2.092,2.092,0,0,1-.4.6l-0.3.5c-0.2.4-.1,1-0.3,1.3-0.1.9-.8,1.5-0.5,2.3m-8.7-11.5a8.561,8.561,0,0,1,.5,2.3c0.3,0.8,0,1.8.1,2.7a2.234,2.234,0,0,1,0,1.4,10.818,10.818,0,0,0,0,1.8,15.956,15.956,0,0,0,1,2.3,0.55,0.55,0,0,0,.5.3h0.1a1.952,1.952,0,0,0,1.2-1.3,1.087,1.087,0,0,0,.1-0.5,9.926,9.926,0,0,0,.3-1.5,5.066,5.066,0,0,0-.2-1.3c-0.4-.7-0.1-1.7-0.5-2.5v-1.8l0.1-3.3a15.483,15.483,0,0,0-.1-2.1,6.72,6.72,0,0,0-.6-1.2l-0.5-.4a1.093,1.093,0,0,0-1-.2,3.882,3.882,0,0,0-1.5,1.1c-0.5.9-.1,2,0.1,3,0.2,0.3.2,0.8,0.4,1.2m-10.2,4a8.421,8.421,0,0,0,1.1,2.1c0.4,0.6.7,1.2,1.1,1.9a2.471,2.471,0,0,1,.4.9l0.2,1.5a0.2,0.2,0,0,0,.1.2l0.4,1.2a2.59,2.59,0,0,0,1.9,1.6l0.7,0.1c0.6-.2.4-0.8,0.5-1.2a0.9,0.9,0,0,0,.1-0.5,9.513,9.513,0,0,0-.4-1.8c-0.6-.6-0.8-1.2-1.4-1.7a2.725,2.725,0,0,1-.6-1.2c-0.3-.4-0.2-1-0.5-1.5a8.752,8.752,0,0,1-.2-1.6,14.768,14.768,0,0,0-.1-2.1l-0.4-1v-0.2a6.278,6.278,0,0,0-1.1-1.2,1.063,1.063,0,0,0-1.2-.1,3.838,3.838,0,0,0-1.1,1.1,1.535,1.535,0,0,0,0,1.6,3.2,3.2,0,0,0,.5,1.9m7.6,16.3a12.2,12.2,0,0,0,1.7-.7,7.117,7.117,0,0,0,2.1-.4,2.485,2.485,0,0,1,.8-0.1,0.483,0.483,0,0,0,.4-0.1,2.768,2.768,0,0,1,1.3.3h2c0.3,0.1.6,0.1,0.8,0.2a2.589,2.589,0,0,0,1.1.7c0.4-.2,1,0.2,1.3-0.2l0.4-.6a0.756,0.756,0,0,0,.3-0.8c0.2-.4.1-1,0.3-1.5,0.1-.5.5-1.1,0.2-1.6a5.36,5.36,0,0,0-.5-1.1l-0.3-.3a2.516,2.516,0,0,0-1.5-.1c-0.6.3-1.5,0.1-2,.4l-0.7.1a1.627,1.627,0,0,1-1.2.1l-1.1-.6a1.311,1.311,0,0,0-1.1.2l-0.3.2c-0.5.2-.9,0.4-1.3,0.6-0.4.1-.8,0.5-1.3,0.7-0.9-.1-1.5.8-2.4,0.8a1.994,1.994,0,0,0-1.5,1.3c0,0.8-.9,1.2-1.4,1.8a5.582,5.582,0,0,0-.8.5,1.056,1.056,0,0,1-.5.2H11.5c-0.6-.2-0.5-0.9-0.8-1.3-0.2-.7-1-0.7-1.3-1.3a6.815,6.815,0,0,0-1.2-1.2,4.54,4.54,0,0,1-1.5-1.3l-1.9-1.2a6.252,6.252,0,0,0-1.8-2.2,0.1,0.1,0,0,1-.1-0.1,1.209,1.209,0,0,0-1-.3,2.751,2.751,0,0,0-1.5.8,1.8,1.8,0,0,0-.4.9,4.15,4.15,0,0,0,.7,1.3,5.93,5.93,0,0,0,1.5,1.7l0.9,0.7,0.6,0.4,0.7,0.4c0.7,0.3,1.4.8,2.2,1.1l1.1,1a9.908,9.908,0,0,0,1.7,1.1,5.706,5.706,0,0,1,1.4,1.3,0.451,0.451,0,0,0,.3.3,6.117,6.117,0,0,0,1.2.5,0.616,0.616,0,0,0,.7-0.1,32.53,32.53,0,0,0,2.9-2.3,2.965,2.965,0,0,0,1.4-.2m-0.4,6.5a3.1,3.1,0,0,1,.6,1.3,2.024,2.024,0,0,0,.8,1.4c0.6,0.5,1.5.3,2,.8a4.145,4.145,0,0,0,1.6.2H22a2.208,2.208,0,0,0,1.6,0c0.5-.4,1.2-0.4,1.6-1.1,0.3-.7,1.3-1.1,1.3-1.9,0.1-.4.7-0.6,0.7-1.1-0.2-.6.1-1.4-0.2-2a4.671,4.671,0,0,0-.5-1,4.125,4.125,0,0,1-1-1.3,4.74,4.74,0,0,0-1-1,8.428,8.428,0,0,0-1.4-.6l-0.8-.1-0.5-.1a3.805,3.805,0,0,0-3,1,3.745,3.745,0,0,0-1.2,1.3,4.715,4.715,0,0,1-.6,1.5,3.653,3.653,0,0,0-.3,1.5c0.3,0.4,0,.8.2,1.2m32.3-8.1a2.041,2.041,0,0,0-1.5-1.2,1.421,1.421,0,0,0-.6-0.2,4.3,4.3,0,0,0-1.6,0,6.109,6.109,0,0,0-1.4.7c-0.8.8-1.8,1.1-2.6,2a14.907,14.907,0,0,0-1.5,2c-0.6.4-1,1.3-1.7,1.5a6.468,6.468,0,0,1-1.3.4,3.379,3.379,0,0,0-1.2.6,5.938,5.938,0,0,0-.8.4,9.973,9.973,0,0,0-1.9,1.2,16.6,16.6,0,0,1-1.4,1.3,15.3,15.3,0,0,1-1.8,1.8,0.52,0.52,0,0,1-.4.2,1.38,1.38,0,0,0-.4.3,7.1,7.1,0,0,1-1.8.8,14.161,14.161,0,0,0-2.2.7,4.146,4.146,0,0,1-1.6.3l-0.9.2a2.268,2.268,0,0,1-.4-0.1c-0.4,0-.8-0.1-1.3-0.1a3,3,0,0,0-1-.4c-0.7-.3-1.5-0.6-2.3-1a5.849,5.849,0,0,1-1.5-.6,13.028,13.028,0,0,0-1.5-1,3.63,3.63,0,0,0-.7-0.3,0.53,0.53,0,0,0-.2.3c0.1,0.4.3,0.8,0.4,1.3l0.1,1.7,0.2,0.5a3.6,3.6,0,0,0,.2,1.1c0,0.4.3,0.7,0.3,1.2a6.776,6.776,0,0,0,1.4,2.3,6.89,6.89,0,0,0,.3.8,1.8,1.8,0,0,0,.9.6,5.3,5.3,0,0,1,1,.6,1.623,1.623,0,0,0,.5.9,3.6,3.6,0,0,0,1.1.2,3.21,3.21,0,0,0,1.7.2l0.3-.2a4.811,4.811,0,0,0,1.1-.9,6.071,6.071,0,0,0,1-.7,7.631,7.631,0,0,1,1.1-.8,1.645,1.645,0,0,1,1-.2l1-.4,1.2-.3a1.078,1.078,0,0,0,.8-0.8l0.2-.3c0.3-.1.7,0.2,1.1,0.1a11.732,11.732,0,0,0,1.1-.5c0.5-.3,1.1-0.6,1-1.2a2.564,2.564,0,0,1,1.1-.8,5.73,5.73,0,0,1,1.1-1.1,1.445,1.445,0,0,0,.7-1l0.4-.6a2.375,2.375,0,0,0,.3-1.2,1.555,1.555,0,0,1,.6-0.8,4.875,4.875,0,0,1,.3-0.7c0.6-.2,1-0.8,1.6-0.8a1.868,1.868,0,0,0,1.2-1.1,2.631,2.631,0,0,1,1.5-1.6,6.079,6.079,0,0,0,1.8-.9,3.645,3.645,0,0,1,1.5-.2,18.185,18.185,0,0,0,3.1-1.6,2.73,2.73,0,0,0,1.4-1.6,3.083,3.083,0,0,1-.1-1" style="fill:#5aba48"/><path d="M35,41.139a3.138,3.138,0,0,1,3.1,3.2,3.15,3.15,0,1,1-6.3,0,3.29,3.29,0,0,1,3.2-3.2m0,5.4a2.2,2.2,0,1,0-2.2-2.2,2.22,2.22,0,0,0,2.2,2.2m-0.4-.6H33.7v-3.1h1.4a1.11,1.11,0,0,1,.6,2.1l0.8,1.1h-1l-0.7-1H34.6v0.9h0Zm0-1.7h0.5a0.351,0.351,0,1,0,0-.7H34.6v0.7Z" style="fill:#5aba48"/></svg>