<svg xmlns="http://www.w3.org/2000/svg" viewBox="0 0 51.264 50.665" width="52" height="52"><path d="M28.966,14.212a0.477,0.477,0,0,0,.506.169,0.31,0.31,0,0,0,.253.084,1.26,1.26,0,0,0,.591-0.253,14.428,14.428,0,0,1,1.182-.928,7.388,7.388,0,0,0,.844-1.857,3.653,3.653,0,0,0,.422-1.013L33.1,9.4a6.4,6.4,0,0,1,.506-1.35,1.718,1.718,0,0,1,.506-1.266,9.224,9.224,0,0,0,.675-1.266,2.147,2.147,0,0,0,.253-1.266,1.564,1.564,0,0,0-.675-1.519l-0.675-.253a0.952,0.952,0,0,0-.928.253,2.463,2.463,0,0,0-.928,1.35,4.178,4.178,0,0,0-.338,1.1,2.682,2.682,0,0,0-.169,1.182c0,0.338-.253.591-0.253,1.013a3.475,3.475,0,0,0-.253.675l-0.338.928a5.6,5.6,0,0,0-.253,1.266,1.766,1.766,0,0,1-.338.506l-0.253.422c-0.169.338-.084,0.844-0.253,1.1-0.084.76-.675,1.266-0.422,1.941M21.623,4.506a7.225,7.225,0,0,1,.422,1.941,10.115,10.115,0,0,1,.084,2.279,1.886,1.886,0,0,1,0,1.182,9.13,9.13,0,0,0,0,1.519,13.467,13.467,0,0,0,.844,1.941,0.464,0.464,0,0,0,.422.253H23.48a1.647,1.647,0,0,0,1.013-1.1,0.918,0.918,0,0,0,.084-0.422,8.378,8.378,0,0,0,.253-1.266,4.276,4.276,0,0,0-.169-1.1c-0.338-.591-0.084-1.435-0.422-2.11V6.11l0.084-2.785a13.068,13.068,0,0,0-.084-1.772A5.672,5.672,0,0,0,23.733.54L23.311,0.2A0.922,0.922,0,0,0,22.467.033,3.276,3.276,0,0,0,21.2.962a3.747,3.747,0,0,0,.084,2.532c0.169,0.253.169,0.675,0.338,1.013M13.014,7.882a7.108,7.108,0,0,0,.928,1.772c0.338,0.506.591,1.013,0.928,1.6a2.085,2.085,0,0,1,.338.76l0.169,1.266a0.168,0.168,0,0,0,.084.169L15.8,14.466a2.186,2.186,0,0,0,1.6,1.35L17.994,15.9a0.968,0.968,0,0,0,.422-1.013,0.761,0.761,0,0,0,.084-0.422,8.029,8.029,0,0,0-.338-1.519c-0.506-.506-0.675-1.013-1.182-1.435a2.3,2.3,0,0,1-.506-1.013c-0.253-.338-0.169-0.844-0.422-1.266a7.387,7.387,0,0,1-.169-1.35A12.464,12.464,0,0,0,15.8,6.11l-0.338-.844V5.1a5.3,5.3,0,0,0-.928-1.013A0.9,0.9,0,0,0,13.52,4a3.239,3.239,0,0,0-.928.928,1.3,1.3,0,0,0,0,1.35,2.7,2.7,0,0,0,.422,1.6M19.428,21.64a10.3,10.3,0,0,0,1.435-.591,6.006,6.006,0,0,0,1.772-.338,2.1,2.1,0,0,1,.675-0.084,0.407,0.407,0,0,0,.338-0.084,2.336,2.336,0,0,1,1.1.253h1.688c0.253,0.084.506,0.084,0.675,0.169a2.185,2.185,0,0,0,.928.591c0.338-.169.844,0.169,1.1-0.169l0.338-.506a0.638,0.638,0,0,0,.253-0.675c0.169-.338.084-0.844,0.253-1.266a1.9,1.9,0,0,0,.169-1.35,4.524,4.524,0,0,0-.422-0.928l-0.253-.253a2.123,2.123,0,0,0-1.266-.084c-0.506.253-1.266,0.084-1.688,0.338l-0.591.084a1.374,1.374,0,0,1-1.013.084l-0.928-.506a1.106,1.106,0,0,0-.928.169L22.8,16.66c-0.422.169-.76,0.338-1.1,0.506-0.338.084-.675,0.422-1.1,0.591-0.76-.084-1.266.675-2.026,0.675a1.683,1.683,0,0,0-1.266,1.1c0,0.675-.76,1.013-1.182,1.519a4.711,4.711,0,0,0-.675.422,0.891,0.891,0,0,1-.422.169H14.533c-0.506-.169-0.422-0.76-0.675-1.1-0.169-.591-0.844-0.591-1.1-1.1a5.752,5.752,0,0,0-1.013-1.013,3.832,3.832,0,0,1-1.266-1.1l-1.6-1.013a5.277,5.277,0,0,0-1.519-1.857,0.083,0.083,0,0,1-.084-0.084,1.02,1.02,0,0,0-.844-0.253,2.322,2.322,0,0,0-1.266.675,1.517,1.517,0,0,0-.338.76,3.5,3.5,0,0,0,.591,1.1,5.005,5.005,0,0,0,1.266,1.435l0.76,0.591L7.95,19.023l0.591,0.338c0.591,0.253,1.182.675,1.857,0.928l0.928,0.844a8.363,8.363,0,0,0,1.435.928,4.816,4.816,0,0,1,1.182,1.1,0.38,0.38,0,0,0,.253.253,5.163,5.163,0,0,0,1.013.422A0.52,0.52,0,0,0,15.8,23.75a27.456,27.456,0,0,0,2.448-1.941,2.5,2.5,0,0,0,1.182-.169m-0.338,5.486a2.616,2.616,0,0,1,.506,1.1,1.709,1.709,0,0,0,.675,1.182c0.506,0.422,1.266.253,1.688,0.675a3.5,3.5,0,0,0,1.35.169H23.4a1.864,1.864,0,0,0,1.35,0,3.535,3.535,0,0,0,1.35-.928c0.253-.591,1.1-0.928,1.1-1.6a3.485,3.485,0,0,0,.591-0.928,11.437,11.437,0,0,0-.169-1.688,3.942,3.942,0,0,0-.422-0.844,3.481,3.481,0,0,1-.844-1.1,4,4,0,0,0-.844-0.844,7.113,7.113,0,0,0-1.182-.506l-0.675-.084-0.422-.084a3.211,3.211,0,0,0-2.532.844,3.16,3.16,0,0,0-1.013,1.1,3.979,3.979,0,0,1-.506,1.266,3.083,3.083,0,0,0-.253,1.266,4.236,4.236,0,0,1,.169,1.013m27.261-6.836a1.723,1.723,0,0,0-1.266-1.013,1.2,1.2,0,0,0-.506-0.169,3.625,3.625,0,0,0-1.35,0,5.156,5.156,0,0,0-1.182.591c-0.675.675-1.519,0.928-2.194,1.688a12.582,12.582,0,0,0-1.266,1.688c-0.506.338-.844,1.1-1.435,1.266a5.459,5.459,0,0,1-1.1.338,2.852,2.852,0,0,0-1.013.506,5.011,5.011,0,0,0-.675.338,8.418,8.418,0,0,0-1.6,1.013,14.014,14.014,0,0,1-1.182,1.1,12.913,12.913,0,0,1-1.519,1.519,0.438,0.438,0,0,1-.338.169,1.165,1.165,0,0,0-.338.253,6,6,0,0,1-1.519.675,11.952,11.952,0,0,0-1.857.591,3.5,3.5,0,0,1-1.35.253l-0.76.169a1.914,1.914,0,0,1-.338-0.084c-0.338,0-.675-0.084-1.1-0.084a2.528,2.528,0,0,0-.844-0.338c-0.591-.253-1.266-0.506-1.941-0.844a4.937,4.937,0,0,1-1.266-.506,11,11,0,0,0-1.266-.844,3.064,3.064,0,0,0-.591-0.253,0.447,0.447,0,0,0-.169.253c0.084,0.338.253,0.675,0.338,1.1l0.084,1.435,0.169,0.422a3.034,3.034,0,0,0,.169.928c0,0.338.253,0.591,0.253,1.013A5.719,5.719,0,0,0,18.584,35.4a5.815,5.815,0,0,0,.253.675,1.518,1.518,0,0,0,.76.506,4.471,4.471,0,0,1,.844.506,1.37,1.37,0,0,0,.422.76,3.034,3.034,0,0,0,.928.169,2.709,2.709,0,0,0,1.435.169l0.253-.169a4.061,4.061,0,0,0,.928-0.76,5.124,5.124,0,0,0,.844-0.591,6.441,6.441,0,0,1,.928-0.675,1.388,1.388,0,0,1,.844-0.169l0.844-.338,1.013-.253a0.91,0.91,0,0,0,.675-0.675l0.169-.253c0.253-.084.591,0.169,0.928,0.084a9.9,9.9,0,0,0,.928-0.422,1.15,1.15,0,0,0,.844-1.013,2.164,2.164,0,0,1,.928-0.675,4.836,4.836,0,0,1,.928-0.928,1.22,1.22,0,0,0,.591-0.844L35.211,30a2,2,0,0,0,.253-1.013,1.313,1.313,0,0,1,.506-0.675,4.115,4.115,0,0,1,.253-0.591,5.054,5.054,0,0,1,1.35-.675,1.576,1.576,0,0,0,1.013-.928,2.22,2.22,0,0,1,1.266-1.35A5.131,5.131,0,0,0,41.373,24a3.076,3.076,0,0,1,1.266-.169,15.348,15.348,0,0,0,2.616-1.35,2.3,2.3,0,0,0,1.182-1.35,2.6,2.6,0,0,1-.084-0.844" style="fill:#5aba48"/><path d="M7.123,40.852a0.944,0.944,0,1,1,0,1.888A0.959,0.959,0,0,1,6.15,41.8a0.941,0.941,0,0,1,.973-0.944M6.379,50.493H7.924V43.427H6.379v7.066Zm17.994-7.037H26l-2.575,7.037H21.856l-2.575-7.037h1.631L22.685,48.4Zm3.2-2.6a0.944,0.944,0,1,1,0,1.888A0.959,0.959,0,0,1,26.6,41.8a0.941,0.941,0,0,1,.973-0.944m-0.744,9.641h1.545V43.427H26.833v7.066Zm9.7-9.641a0.944,0.944,0,1,1,0,1.888,0.959,0.959,0,0,1-.973-0.944,0.941,0.941,0,0,1,.973-0.944m-0.744,9.641h1.545V43.427H35.787v7.066Zm5.664-7.209a2.607,2.607,0,0,1,2.861,2.432v2.46c0,1.659-1.459,2.432-2.861,2.432-1.43,0-2.889-.8-2.889-2.432v-2.46c0.029-1.6,1.459-2.4,2.889-2.432m-1.316,2.432v2.46a1.228,1.228,0,0,0,1.345,1.058A1.214,1.214,0,0,0,42.8,48.176v-2.46a1.4,1.4,0,0,0-2.66,0"/><path d="M45.571,43.913c2.06-1,5.693-.83,5.693,1.945v4.663H49.719V45.859c-0.057-1.2-1.831-1.345-2.6-.858v5.521H45.571V43.913Z"/><path d="M34.367,34.722a2.649,2.649,0,0,1,2.616,2.7,2.659,2.659,0,1,1-5.317,0,2.777,2.777,0,0,1,2.7-2.7m0,4.558a1.857,1.857,0,1,0-1.857-1.857,1.873,1.873,0,0,0,1.857,1.857m-0.338-.506H33.27V36.156h1.182a0.937,0.937,0,0,1,.506,1.772l0.675,0.928H34.789L34.2,38.013H34.03v0.76h0Zm0-1.435h0.422a0.3,0.3,0,1,0,0-.591H34.03v0.591Z" style="fill:#5aba48"/><path d="M12.444,49.292c-0.8,0-1.545-.086-1.545-1.173V44.943h1.4V43.456H10.9V40.881H9.354V48.09c0,2,1.43,2.718,3.147,2.46ZM2.861,46.316c-0.6-.086-1.373-0.286-1.316-0.915A0.94,0.94,0,0,1,2.6,44.772H4.835v-1.4H2.6C1.373,43.4,0,44.028,0,45.515c0,1.6,1.573,1.974,2.575,2.174a1.2,1.2,0,0,1,1.173.772,0.859,0.859,0,0,1-1,.8H0.2v1.4H2.746a2.292,2.292,0,0,0,2.489-2.2c0-1.516-1.2-1.974-2.374-2.146m29.494,0c-0.6-.086-1.373-0.286-1.316-0.915a0.94,0.94,0,0,1,1.058-.629h2.231v-1.4H32.1c-1.23.029-2.6,0.658-2.6,2.146,0,1.6,1.573,1.974,2.575,2.174a1.2,1.2,0,0,1,1.173.772,0.859,0.859,0,0,1-1,.8H29.723v1.4h2.546a2.292,2.292,0,0,0,2.489-2.2c0-1.516-1.23-1.974-2.4-2.146"/><path d="M18.966,47.661V45.744a2.561,2.561,0,0,0-2.832-2.432c-1.43,0-2.889.772-2.889,2.432v2.489c0,1.631,1.373,2.4,2.8,2.432h2.775v-1.43h-2.2c-0.973-.029-1.859-0.315-1.859-1V47.661h4.205ZM14.79,45.744c-0.057-1.373,2.66-1.345,2.66-.029v0.715H14.79V45.744Z"/></svg>