<svg xmlns="http://www.w3.org/2000/svg" viewBox="0 0 82 21.681" width="82" height="21.7"><title>Artboard 1</title><path d="M57.788 7.605c-.515 1.315-1.139 2.961-1.774 4.552-1.03 2.581-2.037 5.227-2.285 5.849-.271-.6-1.436-3.288-2.594-5.849-.74-1.633-1.446-3.306-2.011-4.552h-3.25l2.014 4.552 3.529 7.983a2.525 2.525 0 0 0 2.258 1.539 2.3 2.3 0 0 0 2.355-1.45l3.176-8.072 1.766-4.552zm-16.054 4.552v2.708a3.788 3.788 0 1 1-7.576 0V7.613h-2.965v7.251a6.752 6.752 0 1 0 13.5 0V7.613h-2.959zm-27.946 0A7.086 7.086 0 0 0 2.963 8.76V0H0v14.524a7.1 7.1 0 1 0 13.788-2.367zM7.1 18.674a4.146 4.146 0 1 1 4.141-4.151A4.149 4.149 0 0 1 7.1 18.674zm15.512-.038a4.15 4.15 0 1 1 4.139-4.153 4.147 4.147 0 0 1-4.139 4.153m0-11.252a7.113 7.113 0 0 0-6.7 4.774 7.022 7.022 0 0 0-.4 2.326 7.1 7.1 0 1 0 7.1-7.1m45.34 11.286a4.149 4.149 0 0 1 0-8.3 4.078 4.078 0 0 1 2.641.974l-.012.006-1.4.8-1.929 1.109a1.478 1.478 0 1 0 1.484 2.557L73.6 13.04h-.008a1.47 1.47 0 0 0 .686-.879 1.45 1.45 0 0 0-.144-1.134 7.222 7.222 0 0 0-.86-1.184l-.019-.019a7.085 7.085 0 1 0 1.255 7.44l-2.727-1.171a4.133 4.133 0 0 1-3.827 2.583m11.232-8.11H82V7.613h-2.812V.042h-2.959v16.179a5.444 5.444 0 0 0 5.364 5.416H82v-2.951h-.337a2.484 2.484 0 0 1-2.475-2.473v-5.647z" fill="#ff6400"/></svg>